<svg
  id="visual"
  viewBox="0 0 1920 150"
  width="1920"
  height="150"
  xmlns="http://www.w3.org/2000/svg"
  xmlns:xlink="http://www.w3.org/1999/xlink"
  version="1.1"
><path
    d="M0 44L35.5 42.3C71 40.7 142 37.3 213.2 34C284.3 30.7 355.7 27.3 426.8 25.7C498 24 569 24 640 24.2C711 24.3 782 24.7 853.2 28.2C924.3 31.7 995.7 38.3 1066.8 39C1138 39.7 1209 34.3 1280 31.7C1351 29 1422 29 1493.2 30.7C1564.3 32.3 1635.7 35.7 1706.8 37.7C1778 39.7 1849 40.3 1884.5 40.7L1920 41L1920 151L1884.5 151C1849 151 1778 151 1706.8 151C1635.7 151 1564.3 151 1493.2 151C1422 151 1351 151 1280 151C1209 151 1138 151 1066.8 151C995.7 151 924.3 151 853.2 151C782 151 711 151 640 151C569 151 498 151 426.8 151C355.7 151 284.3 151 213.2 151C142 151 71 151 35.5 151L0 151Z"
    fill="#672547"
  /><path
    d="M0 63L35.5 61C71 59 142 55 213.2 56.5C284.3 58 355.7 65 426.8 66.5C498 68 569 64 640 63.5C711 63 782 66 853.2 68.8C924.3 71.7 995.7 74.3 1066.8 74.3C1138 74.3 1209 71.7 1280 71.3C1351 71 1422 73 1493.2 73.3C1564.3 73.7 1635.7 72.3 1706.8 72.7C1778 73 1849 75 1884.5 76L1920 77L1920 151L1884.5 151C1849 151 1778 151 1706.8 151C1635.7 151 1564.3 151 1493.2 151C1422 151 1351 151 1280 151C1209 151 1138 151 1066.8 151C995.7 151 924.3 151 853.2 151C782 151 711 151 640 151C569 151 498 151 426.8 151C355.7 151 284.3 151 213.2 151C142 151 71 151 35.5 151L0 151Z"
    fill="#9a6b80"
  /><path
    d="M0 98L35.5 98.5C71 99 142 100 213.2 100.2C284.3 100.3 355.7 99.7 426.8 99C498 98.3 569 97.7 640 96.2C711 94.7 782 92.3 853.2 91.8C924.3 91.3 995.7 92.7 1066.8 92C1138 91.3 1209 88.7 1280 88.7C1351 88.7 1422 91.3 1493.2 94.3C1564.3 97.3 1635.7 100.7 1706.8 99.3C1778 98 1849 92 1884.5 89L1920 86L1920 151L1884.5 151C1849 151 1778 151 1706.8 151C1635.7 151 1564.3 151 1493.2 151C1422 151 1351 151 1280 151C1209 151 1138 151 1066.8 151C995.7 151 924.3 151 853.2 151C782 151 711 151 640 151C569 151 498 151 426.8 151C355.7 151 284.3 151 213.2 151C142 151 71 151 35.5 151L0 151Z"
    fill="#ccb3bd"
  /><path
    d="M0 126L35.5 125C71 124 142 122 213.2 120.2C284.3 118.3 355.7 116.7 426.8 114.8C498 113 569 111 640 112.5C711 114 782 119 853.2 121.3C924.3 123.7 995.7 123.3 1066.8 122C1138 120.7 1209 118.3 1280 119.2C1351 120 1422 124 1493.2 124.3C1564.3 124.7 1635.7 121.3 1706.8 121C1778 120.7 1849 123.3 1884.5 124.7L1920 126L1920 151L1884.5 151C1849 151 1778 151 1706.8 151C1635.7 151 1564.3 151 1493.2 151C1422 151 1351 151 1280 151C1209 151 1138 151 1066.8 151C995.7 151 924.3 151 853.2 151C782 151 711 151 640 151C569 151 498 151 426.8 151C355.7 151 284.3 151 213.2 151C142 151 71 151 35.5 151L0 151Z"
    fill="#ffffff"
  /></svg>
