<svg
  id="visual"
  viewBox="0 0 1920 150"
  width="1920"
  height="150"
  xmlns="http://www.w3.org/2000/svg"
  xmlns:xlink="http://www.w3.org/1999/xlink"
  version="1.1"
><path
    d="M0 27L40 31.3C80 35.7 160 44.3 240 47.7C320 51 400 49 480 45.2C560 41.3 640 35.7 720 36.3C800 37 880 44 960 47.3C1040 50.7 1120 50.3 1200 51.7C1280 53 1360 56 1440 53.7C1520 51.3 1600 43.7 1680 40.2C1760 36.7 1840 37.3 1880 37.7L1920 38L1920 151L1880 151C1840 151 1760 151 1680 151C1600 151 1520 151 1440 151C1360 151 1280 151 1200 151C1120 151 1040 151 960 151C880 151 800 151 720 151C640 151 560 151 480 151C400 151 320 151 240 151C160 151 80 151 40 151L0 151Z"
    fill="#de64a3"
  /><path
    d="M0 65L40 64.2C80 63.3 160 61.7 240 64.2C320 66.7 400 73.3 480 73.8C560 74.3 640 68.7 720 66.2C800 63.7 880 64.3 960 62.7C1040 61 1120 57 1200 56.2C1280 55.3 1360 57.7 1440 59C1520 60.3 1600 60.7 1680 62.3C1760 64 1840 67 1880 68.5L1920 70L1920 151L1880 151C1840 151 1760 151 1680 151C1600 151 1520 151 1440 151C1360 151 1280 151 1200 151C1120 151 1040 151 960 151C880 151 800 151 720 151C640 151 560 151 480 151C400 151 320 151 240 151C160 151 80 151 40 151L0 151Z"
    fill="#a34071"
  /><path
    d="M0 100L40 97.2C80 94.3 160 88.7 240 86C320 83.3 400 83.7 480 87.7C560 91.7 640 99.3 720 100.3C800 101.3 880 95.7 960 94.7C1040 93.7 1120 97.3 1200 98.3C1280 99.3 1360 97.7 1440 94.5C1520 91.3 1600 86.7 1680 85.3C1760 84 1840 86 1880 87L1920 88L1920 151L1880 151C1840 151 1760 151 1680 151C1600 151 1520 151 1440 151C1360 151 1280 151 1200 151C1120 151 1040 151 960 151C880 151 800 151 720 151C640 151 560 151 480 151C400 151 320 151 240 151C160 151 80 151 40 151L0 151Z"
    fill="#6a1f44"
  /><path
    d="M0 116L40 116.2C80 116.3 160 116.7 240 117C320 117.3 400 117.7 480 116.8C560 116 640 114 720 114.5C800 115 880 118 960 118.5C1040 119 1120 117 1200 115C1280 113 1360 111 1440 113.5C1520 116 1600 123 1680 123.2C1760 123.3 1840 116.7 1880 113.3L1920 110L1920 151L1880 151C1840 151 1760 151 1680 151C1600 151 1520 151 1440 151C1360 151 1280 151 1200 151C1120 151 1040 151 960 151C880 151 800 151 720 151C640 151 560 151 480 151C400 151 320 151 240 151C160 151 80 151 40 151L0 151Z"
    fill="#36011c"
  /></svg>
